Simulation
nRows=20
nColumns=15
endheader
time  TH_x TH_y TH_z SC_y  SC_z  SC_x  AC_y  AC_z  AC_x  GH_y  GH_z  GH_yy  EL_x  PS_y
2.0  0.000000  0.000000  0.000000  -30.509637903661584  1.7675162217469722  -11.472609665084173  55.336999316479  36.556635458139155  50.62051683770915  -3.7091931950696604  20.5768953971362  4.277405140854003  27.101681067457424  0.000000
2.04  0.000000  0.000000  0.000000  -27.58024495040997  0.851873252060429  -5.657902180945152  54.15003656426794  30.989652137815987  46.37247677611877  8.90695952215549  22.994032565528606  -6.215874176581911  24.510978072442494  0.000000
2.08  0.000000  0.000000  0.000000  -31.12246905909497  3.1935995497699623  -3.4857379319298145  57.140472578694386  29.167040809447233  46.49240913654426  17.04532226397121  23.67804186390158  -15.701384522102789  22.20534510385143  0.000000
2.12  0.000000  0.000000  0.000000  -30.760142566278258  2.2566951748076702  -1.6374536946142892  55.690158673187064  27.797269783205433  44.78561209895396  23.283701407296007  23.882429643598673  -22.104379361828396  23.22820587105337  0.000000
2.16  0.000000  0.000000  0.000000  -30.143177070065434  2.15522081742132  -1.0156255699447472  56.04689239091443  26.891846685491593  44.16162990937241  26.753429647696443  24.216610552164752  -27.469523875682466  22.700635236313417  0.000000
2.2  0.000000  0.000000  0.000000  -30.5753790626532  2.1555317495906645  -0.26021125643284926  56.831992113951756  26.728197042026387  43.88682096827932  30.30345880381344  22.82157293006557  -31.909128391428034  22.914766016074946  0.000000
2.24  0.000000  0.000000  0.000000  -29.75273269139952  1.9349839129635482  -0.12816355946517707  56.600840611493524  26.367017164554138  43.576323659148464  33.51930678054892  21.732849525668442  -35.67825817090618  23.453565533774444  0.000000
2.2800000000000002  0.000000  0.000000  0.000000  -29.830444271521973  2.1266291116391014  0.14435889318778197  57.380284358092744  26.260152347722467  43.596091687296315  36.58156460002547  20.24818511125394  -39.3214960425672  23.229776630117662  0.000000
2.32  0.000000  0.000000  0.000000  -29.307834161787145  2.0219323999898537  0.2527940362021598  57.40106083379547  26.084801007633917  43.401484618424476  39.88127274403513  18.713199355464127  -42.63730068436645  23.528419651796167  0.000000
2.36  0.000000  0.000000  0.000000  -28.996584801011604  2.0060120771811056  0.4235287366885326  57.86968762714729  25.99178249316707  43.38938848306643  43.14401245665116  17.183495769115865  -45.95524300047726  23.208087571066596  0.000000
2.4  0.000000  0.000000  0.000000  -28.689435963097903  2.0297491533135847  0.5367821963702543  58.217093060878646  25.875591993571472  43.29328381840915  46.738740936046526  15.756944815782997  -49.21414209882342  23.19452640551492  0.000000
2.44  0.000000  0.000000  0.000000  -28.344032914688558  1.8888072691801219  0.6907616629339186  58.525751950301945  25.82903217586728  43.20494334287236  50.4051117510277  14.44207553388763  -52.45776359563857  23.006036398242067  0.000000
2.48  0.000000  0.000000  0.000000  -28.209846945638528  1.8590691256220162  0.8470206977130125  58.968044591633245  25.779139872161963  43.089379625077555  54.115815401961186  13.393040620375567  -55.661466133154214  22.839821317829703  0.000000
2.52  0.000000  0.000000  0.000000  -28.04652493452237  1.6626913457146963  1.0144073817179233  59.23217845127059  25.769327098180003  42.92500869246176  57.76755717448921  12.515105537187804  -58.642078734377336  22.698639309881024  0.000000
2.56  0.000000  0.000000  0.000000  -28.02470608392723  1.553641917917145  1.2009072421821598  59.618702723824995  25.764607397851275  42.76968168701185  61.12281694979307  11.896881298512627  -61.36971384397825  22.54030583494422  0.000000
2.6  0.000000  0.000000  0.000000  -27.92805509867236  1.4230618657699923  1.3280226306819984  59.85876779107284  25.73353024437894  42.62474217302903  64.1925977511465  11.512231195696419  -63.605237481242106  22.438803767524657  0.000000
2.64  0.000000  0.000000  0.000000  -27.76532003790006  1.4178900713960094  1.4375804376554322  60.128458400250985  25.685198928993568  42.59189416197443  66.76537061802554  11.239977389253124  -65.41067374431233  22.33549788231638  0.000000
2.68  0.000000  0.000000  0.000000  -27.517891614104602  1.4825843883443766  1.4828152788715578  60.32189494431431  25.590029818116314  42.635310201585334  68.89227511441689  11.06912874461614  -66.64640763267018  22.276791975538814  0.000000
2.72  0.000000  0.000000  0.000000  -27.19688404030887  1.6239753154786822  1.4727834150137515  60.46845304388024  25.50586721177411  42.77149656205037  70.42875911641063  10.902796389466936  -67.4527216153185  22.28982882280931  0.000000
2.7600000000000002  0.000000  0.000000  0.000000  -26.92221042426009  1.7980874399885265  1.4475819999779473  60.56601160917267  25.398092371919073  42.933811958569585  71.40308209968882  10.754989147098424  -67.79592077302301  22.360155589749173  0.000000
